#!OML:ASF F:\VICON\USERDATA\INSTALL\rory3\rory3.ASF
:FULLY-SPECIFIED
:DEGREES
1335
root 0.590327 15.058 -1.0945 -2.32897 -2.88417 1.25109
lowerback 15.9998 -0.376425 -3.97283
upperback 9.25658 -1.04635 -1.41729
thorax 0.922159 -0.649404 0.905536
lowerneck 4.46024 -7.14807 -18.2785
upperneck 15.5198 -12.0315 17.0724
head 6.03721 -6.18381 8.00282
rclavicle -1.03368e-014 4.77083e-015
rhumerus 9.61841 -28.958 -55.9499
rradius 118.013
rwrist -33.8942
rhand -18.7839 10.8903
rfingers 7.12502
rthumb 7.51371 -18.9562
lclavicle -1.03368e-014 4.77083e-015
lhumerus -29.3374 3.66455 81.003
lradius 21.4879
lwrist 34.5626
lhand -3.21265 14.6646
lfingers 7.12502
lthumb 22.5099 43.3725
rfemur -21.414 4.27838 12.8221
rtibia 49.7411
rfoot -21.549 -3.19425
rtoes -18.6226
lfemur -18.9794 2.58329 -18.212
ltibia 46.8915
lfoot -18.34 -6.08554
ltoes -6.94049
1336
root 0.589325 15.0579 -1.09237 -2.31189 -2.76597 1.15117
lowerback 16.0417 -0.399541 -3.88249
upperback 9.16446 -1.06716 -1.24134
thorax 0.803561 -0.657666 1.0442
lowerneck 4.50201 -7.65336 -19.262
upperneck 15.7145 -12.8026 17.3137
head 6.32972 -6.60437 8.184
rclavicle -1.11319e-014 8.74653e-015
rhumerus 6.4754 -26.8936 -55.5194
rradius 116.148
rwrist -30.8063
rhand -18.723 10.3798
rfingers 7.12502
rthumb 7.57257 -19.4646
lclavicle -1.11319e-014 8.74653e-015
lhumerus -29.4217 3.45381 81.284
lradius 21.4955
lwrist 34.1885
lhand -3.33545 14.3471
lfingers 7.12502
lthumb 22.392 43.0693
rfemur -21.366 4.15456 12.9304
rtibia 49.6921
rfoot -21.5236 -3.22947
rtoes -18.7106
lfemur -19.0448 2.43579 -18.1087
ltibia 46.9584
lfoot -18.3656 -6.07861
ltoes -7.06093
1337
root 0.587289 15.0567 -1.08956 -2.28555 -2.64314 1.01552
lowerback 16.0102 -0.409026 -3.73732
upperback 9.10493 -1.05793 -1.06832
thorax 0.755267 -0.650314 1.14299
lowerneck 4.73037 -8.07376 -19.845
upperneck 15.5972 -13.4127 17.3188
head 6.42443 -6.94174 8.22621
rclavicle 2.98177e-015 2.26615e-014
rhumerus 3.50045 -24.723 -55.2444
rradius 114.249
rwrist -27.5244
rhand -18.7239 9.75074
rfingers 7.12502
rthumb 7.57162 -20.0937
lclavicle 2.98177e-015 2.26615e-014
lhumerus -29.4136 3.08616 81.6157
lradius 21.5014
lwrist 33.9888
lhand -3.87823 14.0605
lfingers 7.12502
lthumb 21.8709 42.8444
rfemur -21.3316 4.05083 13.0827
rtibia 49.647
rfoot -21.5033 -3.24824
rtoes -18.6199
lfemur -19.1284 2.31528 -17.9559
ltibia 47.0457
lfoot -18.4011 -6.10632
ltoes -7.11621
1338
root 0.587918 15.0569 -1.08163 -2.32338 -2.54059 1.02688
lowerback 15.9907 -0.390156 -3.67581
upperback 9.05353 -1.02373 -0.962337
thorax 0.709305 -0.631988 1.21486
lowerneck 4.95 -8.53082 -20.2079
upperneck 15.5206 -14.044 17.1171
head 6.51094 -7.28345 8.15188
rclavicle 3.77691e-015 9.54166e-015
rhumerus 0.812689 -22.6055 -55.1547
rradius 112.313
rwrist -24.4591
rhand -18.4205 9.28896
rfingers 7.12502
rthumb 7.86447 -20.5448
lclavicle 3.77691e-015 9.54166e-015
lhumerus -29.4032 2.68436 81.9425
lradius 21.5044
lwrist 33.7853
lhand -4.28683 13.9173
lfingers 7.12502
lthumb 21.4785 42.7465
rfemur -21.2168 3.8985 13.0516
rtibia 49.6073
rfoot -21.5435 -3.13768
rtoes -18.551
lfemur -19.0928 2.1998 -17.9839
ltibia 47.1278
lfoot -18.4948 -6.1407
ltoes -6.91851
1339
root 0.585619 15.0563 -1.07903 -2.35695 -2.36766 0.805617
lowerback 16.096 -0.445369 -3.3968
upperback 8.93084 -1.06419 -0.83063
thorax 0.520042 -0.6406 1.20523
lowerneck 5.1559 -8.97369 -20.6328
upperneck 15.7379 -14.693 16.9363
head 6.70426 -7.63689 8.09405
rclavicle 1.33186e-014 1.27222e-014
rhumerus -1.5225 -20.4765 -55.2828
rradius 110.272
rwrist -22.2335
rhand -17.8468 9.43744
rfingers 7.12502
rthumb 8.41817 -20.3748
lclavicle 1.33186e-014 1.27222e-014
lhumerus -29.5699 2.28793 82.1466
lradius 21.6122
lwrist 33.5566
lhand -4.41009 13.9937
lfingers 7.12502
lthumb 21.3601 42.8364
rfemur -21.083 3.77564 13.3156
rtibia 49.5458
rfoot -21.5518 -3.24243
rtoes -18.6414
lfemur -19.1103 2.06659 -17.7352
ltibia 47.1983
lfoot -18.4992 -6.15196
ltoes -7.19345
1340
root 0.580756 15.0544 -1.07872 -2.39396 -2.22184 0.495061
lowerback 16.146 -0.4431 -3.0084
upperback 8.88629 -1.0098 -0.723874
thorax 0.435926 -0.600249 1.09172
lowerneck 5.48328 -9.44205 -20.7008
upperneck 15.7335 -15.3662 16.7397
head 6.78059 -7.9871 7.97055
rclavicle 1.19271e-014 -5.56597e-015
rhumerus -3.61829 -18.7075 -55.6352
rradius 108.254
rwrist -20.4705
rhand -17.3119 9.87973
rfingers 7.12502
rthumb 8.93439 -19.9111
lclavicle 1.19271e-014 -5.56597e-015
lhumerus -29.6361 1.58483 82.3117
lradius 21.8064
lwrist 33.3671
lhand -4.388 13.9282
lfingers 7.12502
lthumb 21.3813 42.7685
rfemur -20.9581 3.75747 13.6983
rtibia 49.4856
rfoot -21.5125 -3.40947
rtoes -18.5556
lfemur -19.1135 1.98326 -17.3655
ltibia 47.1934
lfoot -18.4525 -6.21194
ltoes -7.33712
1341
root 0.583308 15.0577 -1.0653 -2.52318 -2.14938 0.530292
lowerback 15.989 -0.328921 -2.81237
upperback 9.01428 -0.82585 -0.778253
thorax 0.641968 -0.503433 0.89335
lowerneck 5.90799 -9.95103 -20.5649
upperneck 15.3706 -16.0894 16.6844
head 6.72733 -8.34801 7.8594
rclavicle -1.47101e-014 -3.18055e-015
rhumerus -5.44513 -17.3756 -56.1127
rradius 106.266
rwrist -18.5405
rhand -16.76 9.95661
rfingers 7.12502
rthumb 9.46694 -19.8108
lclavicle -1.47101e-014 -3.18055e-015
lhumerus -29.4479 0.757638 82.4034
lradius 21.996
lwrist 33.1528
lhand -4.18844 13.9096
lfingers 7.12502
lthumb 21.573 42.728
rfemur -20.6858 3.67787 13.6468
rtibia 49.4235
rfoot -21.5493 -3.41083
rtoes -18.5959
lfemur -18.8594 1.85855 -17.4363
ltibia 47.117
lfoot -18.4822 -6.16397
ltoes -7.36624
1342
root 0.587497 15.0629 -1.04769 -2.7168 -2.05972 0.9166
lowerback 15.8528 -0.290177 -3.0544
upperback 9.13326 -0.7996 -0.863736
thorax 0.843288 -0.50058 0.933283
lowerneck 6.30096 -10.3106 -20.7581
upperneck 15.0526 -16.6222 16.6855
head 6.68845 -8.63251 7.84184
rclavicle 2.5842e-015 1.78906e-014
rhumerus -6.89703 -15.651 -56.5479
rradius 104.201
rwrist -16.8694
rhand -16.3175 10.2509
rfingers 7.12502
rthumb 9.89383 -19.4966
lclavicle 2.5842e-015 1.78906e-014
lhumerus -29.4036 0.33323 82.5185
lradius 22.2633
lwrist 33.072
lhand -4.19228 14.1872
lfingers 7.12502
lthumb 21.5693 43.0061
rfemur -20.3633 3.53005 13.169
rtibia 49.4044
rfoot -21.6781 -3.18562
rtoes -18.2953
lfemur -18.467 1.71647 -17.9212
ltibia 46.9793
lfoot -18.5482 -6.10282
ltoes -7.14272
1343
root 0.583245 15.0606 -1.043 -2.82136 -1.94573 1.02504
lowerback 15.8451 -0.36987 -3.26906
upperback 9.12655 -0.930333 -0.765877
thorax 0.852385 -0.576773 1.17543
lowerneck 6.6779 -10.5212 -21.1291
upperneck 14.8522 -16.9446 16.5411
head 6.65169 -8.8289 7.82684
rclavicle 1.35174e-014 3.97569e-016
rhumerus -8.03158 -13.444 -56.9748
rradius 102.107
rwrist -15.7973
rhand -16.3199 10.7905
rfingers 7.12502
rthumb 9.8915 -18.9572
lclavicle 1.35174e-014 3.97569e-016
lhumerus -29.5898 0.197348 82.7378
lradius 22.5332
lwrist 33.144
lhand -4.40114 14.3997
lfingers 7.12502
lthumb 21.3687 43.2414
rfemur -20.219 3.49869 13.0697
rtibia 49.4235
rfoot -21.732 -3.20376
rtoes -18.2373
lfemur -18.2983 1.61888 -18.0302
ltibia 46.8512
lfoot -18.4792 -6.09734
ltoes -7.16858
1344
root 0.578692 15.0546 -1.04148 -2.91678 -1.88769 1.08637
lowerback 15.8588 -0.444757 -3.41022
upperback 9.11587 -1.04676 -0.692406
thorax 0.844416 -0.642181 1.34897
lowerneck 6.92983 -10.7148 -21.4267
upperneck 14.7835 -17.2315 16.3663
head 6.66169 -8.99924 7.78737
rclavicle 1.38155e-014 2.06736e-014
rhumerus -8.82774 -11.3118 -57.5361
rradius 99.9033
rwrist -14.8336
rhand -16.6353 11.1399
rfingers 7.12502
rthumb 9.58725 -18.622
lclavicle 1.38155e-014 2.06736e-014
lhumerus -29.8376 -0.0443097 82.9258
lradius 22.8791
lwrist 33.3339
lhand -4.5755 14.3303
lfingers 7.12502
lthumb 21.2012 43.1909
rfemur -20.1307 3.50613 13.0284
rtibia 49.4903
rfoot -21.7726 -3.24361
rtoes -18.0554
lfemur -18.1682 1.57289 -18.0713
ltibia 46.7586
lfoot -18.4367 -6.14607
ltoes -7.04517
1345
root 0.576775 15.0535 -1.03611 -3.00891 -1.86122 1.24935
lowerback 15.7937 -0.451669 -3.57616
upperback 9.13898 -1.07393 -0.687389
thorax 0.909322 -0.663566 1.45009
lowerneck 7.28093 -10.9313 -21.5946
upperneck 14.5844 -17.5606 16.2583
head 6.61546 -9.18482 7.75232
rclavicle -7.25564e-015 6.75868e-015
rhumerus -9.46173 -9.37579 -58.1473
rradius 97.6096
rwrist -13.6514
rhand -16.9786 11.3438
rfingers 7.12502
rthumb 9.25599 -18.4331
lclavicle -7.25564e-015 6.75868e-015
lhumerus -29.9947 -0.430547 83.0975
lradius 23.142
lwrist 33.5051
lhand -4.68434 13.9638
lfingers 7.12502
lthumb 21.0967 42.8362
rfemur -20.0425 3.52591 12.8615
rtibia 49.5558
rfoot -21.8099 -3.33491
rtoes -18.1183
lfemur -18.0186 1.53618 -18.2501
ltibia 46.7156
lfoot -18.4937 -6.11412
ltoes -7.13033
1346
root 0.573789 15.0523 -1.03343 -3.07252 -1.82922 1.32651
lowerback 15.7709 -0.430265 -3.62745
upperback 9.16007 -1.05104 -0.712465
thorax 0.943599 -0.654145 1.44872
lowerneck 7.56432 -11.1879 -21.6278
upperneck 14.4376 -17.9404 16.1944
head 6.59843 -9.3838 7.70228
rclavicle 8.34896e-015 2.78299e-015
rhumerus -10.1855 -7.78643 -58.9579
rradius 95.5041
rwrist -12.2281
rhand -17.0562 11.7324
rfingers 7.12502
rthumb 9.18113 -18.0477
lclavicle 8.34896e-015 2.78299e-015
lhumerus -30.0411 -1.06044 83.2532
lradius 23.3149
lwrist 33.7821
lhand -4.8849 13.6994
lfingers 7.12502
lthumb 20.904 42.5931
rfemur -19.9851 3.57087 12.8054
rtibia 49.6193
rfoot -21.8563 -3.42137
rtoes -18.0266
lfemur -17.9297 1.49962 -18.3196
ltibia 46.6952
lfoot -18.4715 -6.15275
ltoes -6.85919
